<svg width="61" height="72" viewBox="0 0 61 72" fill="none" xmlns="http://www.w3.org/2000/svg">
<path opacity="0.976" fill-rule="evenodd" clip-rule="evenodd" d="M7.42432 34.5423C7.10766 33.9242 6.86705 33.273 6.70257 32.5888C5.82673 28.8539 4.95093 25.1191 4.07508 21.3841C3.98593 19.3382 4.85656 18.1357 6.68671 17.7765C7.95992 17.7203 8.90544 18.3188 9.52338 19.5725C9.91759 20.7737 10.2298 21.9991 10.46 23.2486C10.5132 23.2678 10.5666 23.287 10.6198 23.3062C16.0447 16.4438 22.9004 13.3487 31.1868 14.021C40.6632 15.4763 47.3154 21.0985 51.1437 30.8873C54.3773 41.0911 52.8132 50.2051 46.451 58.2295C45.4108 59.4904 44.229 60.5486 42.9055 61.404C40.9855 61.8292 39.7269 60.9888 39.1299 58.8826C38.9648 57.7078 39.2744 56.7225 40.0586 55.9268C46.1865 50.1768 48.2069 42.9691 46.12 34.3036C43.3372 26.179 38.0784 21.5427 30.3432 20.3946C25.1315 20.0158 20.5904 21.735 16.72 25.552C16.088 26.1867 15.5353 26.891 15.0622 27.6645C16.5903 27.2472 18.1184 26.8299 19.6465 26.4126C21.2278 26.3622 22.2915 27.1648 22.8378 28.8202C23.1741 30.4435 22.6831 31.6537 21.3648 32.4509C17.5039 33.649 13.6136 34.7316 9.69414 35.6987C8.79545 35.6189 8.03883 35.2335 7.42432 34.5423Z" fill="black"/>
</svg>
