<svg width="52" height="67" viewBox="0 0 52 67" fill="none" xmlns="http://www.w3.org/2000/svg">
<path opacity="0.976" fill-rule="evenodd" clip-rule="evenodd" d="M48.3628 26.1603C48.533 25.4769 48.622 24.7813 48.6299 24.074C48.6516 20.2185 48.6732 16.3631 48.6949 12.5077C48.3278 10.4991 47.2164 9.56276 45.3611 9.6986C44.1134 9.98102 43.3287 10.812 43.0071 12.1919C42.891 13.4616 42.8598 14.7331 42.9135 16.0064C42.8661 16.039 42.8186 16.0718 42.7712 16.1045C35.9863 10.8822 28.6486 9.69365 20.758 12.539C11.8865 16.4589 6.67891 23.6741 5.13499 34.1846C4.26001 44.9403 7.79834 53.3689 15.7502 59.4705C17.0389 60.4186 18.4202 61.1325 19.894 61.6121C21.8511 61.5166 22.8858 60.3681 22.9981 58.1667C22.8978 56.9831 22.379 56.1091 21.4417 55.5447C14.2214 51.5876 10.663 45.1293 10.7665 36.1696C11.6651 27.5505 15.7393 21.6605 22.9896 18.4995C27.9621 16.7527 32.7491 17.2189 37.3506 19.8979C38.1046 20.3464 38.7969 20.8834 39.4275 21.5087C37.8523 21.5082 36.2772 21.5078 34.702 21.5074C33.1567 21.877 32.3026 22.9372 32.1396 24.6879C32.1732 26.3518 32.918 27.396 34.3737 27.8206C38.3853 27.9612 42.3997 27.982 46.417 27.8829C47.2712 27.5678 47.9198 26.9936 48.3628 26.1603Z" fill="black"/>
</svg>
