<svg width="512" height="512" viewBox="0 0 512 512" fill="none" xmlns="http://www.w3.org/2000/svg">
<g clip-path="url(#clip0_1_10)">
<path opacity="0.99" fill-rule="evenodd" clip-rule="evenodd" d="M197.5 -0.5C236.5 -0.5 275.5 -0.5 314.5 -0.5C319.146 1.58294 322.646 4.91627 325 9.5C326.406 17.7492 326.906 26.0826 326.5 34.5C279.5 34.5 232.5 34.5 185.5 34.5C185.094 26.0826 185.594 17.7492 187 9.5C189.354 4.91627 192.854 1.58294 197.5 -0.5Z" fill="#FE5363"/>
<path opacity="0.995" fill-rule="evenodd" clip-rule="evenodd" d="M185.5 34.5C232.5 34.5 279.5 34.5 326.5 34.5C351.502 34.3334 376.502 34.5 401.5 35C409.442 37.6119 413.608 43.1119 414 51.5C414.5 63.1619 414.667 74.8286 414.5 86.5C413.167 116.167 413.167 145.833 414.5 175.5C414.903 188.885 414.403 202.218 413 215.5C411.567 220.598 408.4 224.098 403.5 226C360.227 227.484 316.894 227.984 273.5 227.5C261.833 227.5 250.167 227.5 238.5 227.5C195.106 227.984 151.773 227.484 108.5 226C103.6 224.098 100.433 220.598 98.9998 215.5C97.5964 202.218 97.0964 188.885 97.4998 175.5C98.8331 145.833 98.8331 116.167 97.4998 86.5C97.3333 74.8286 97.4999 63.1619 97.9998 51.5C98.3914 43.1119 102.558 37.6119 110.5 35C135.498 34.5 160.498 34.3334 185.5 34.5Z" fill="#EFC319"/>
<path opacity="0.97" fill-rule="evenodd" clip-rule="evenodd" d="M97.4998 86.5C98.8331 116.167 98.8331 145.833 97.4998 175.5C91.8234 175.666 86.1567 175.499 80.4998 175C72.5347 174.701 67.0347 170.868 63.9998 163.5C62.8684 157.888 62.3684 152.221 62.4998 146.5C63.8331 140.5 63.8331 134.5 62.4998 128.5C62.3334 120.16 62.5001 111.827 62.9998 103.5C64.0932 95.1153 68.5932 89.6153 76.4998 87C83.4919 86.5004 90.4919 86.3337 97.4998 86.5Z" fill="#FE5363"/>
<path opacity="0.969" fill-rule="evenodd" clip-rule="evenodd" d="M414.5 86.5C421.508 86.3337 428.508 86.5004 435.5 87C443.407 89.6153 447.907 95.1153 449 103.5C449.5 111.827 449.666 120.16 449.5 128.5C448.167 134.5 448.167 140.5 449.5 146.5C449.631 152.221 449.131 157.888 448 163.5C444.965 170.868 439.465 174.701 431.5 175C425.843 175.499 420.176 175.666 414.5 175.5C413.167 145.833 413.167 116.167 414.5 86.5Z" fill="#FE5363"/>
<path opacity="0.968" fill-rule="evenodd" clip-rule="evenodd" d="M62.5 128.5C63.8333 134.5 63.8333 140.5 62.5 146.5C53.1874 147.384 44.5207 150.051 36.5 154.5C34.6505 147.812 30.6505 142.812 24.5 139.5C36.2445 132.73 48.9112 129.063 62.5 128.5Z" fill="#BDC2C6"/>
<path opacity="0.976" fill-rule="evenodd" clip-rule="evenodd" d="M449.5 128.5C463.122 128.93 475.789 132.597 487.5 139.5C481.35 142.812 477.35 147.812 475.5 154.5C467.479 150.051 458.813 147.384 449.5 146.5C448.167 140.5 448.167 134.5 449.5 128.5Z" fill="#BDC2C6"/>
<path opacity="0.964" fill-rule="evenodd" clip-rule="evenodd" d="M24.4998 139.5C30.6503 142.812 34.6503 147.812 36.4998 154.5C34.3469 171.242 25.3469 176.742 9.49981 171C0.935766 163.784 -0.564234 155.284 4.99981 145.5C10.3581 140.102 16.8581 138.102 24.4998 139.5Z" fill="#DE4D60"/>
<path opacity="0.966" fill-rule="evenodd" clip-rule="evenodd" d="M487.5 139.5C506.492 138.653 513.325 147.32 508 165.5C498.632 175.728 488.965 176.062 479 166.5C476.901 162.769 475.734 158.769 475.5 154.5C477.35 147.812 481.35 142.812 487.5 139.5Z" fill="#DE4D60"/>
<path fill-rule="evenodd" clip-rule="evenodd" d="M238.5 227.5C250.167 227.5 261.833 227.5 273.5 227.5C273.5 238.833 273.5 250.167 273.5 261.5C261.833 262.833 250.167 262.833 238.5 261.5C238.5 250.167 238.5 238.833 238.5 227.5Z" fill="#813033"/>
<path opacity="0.984" fill-rule="evenodd" clip-rule="evenodd" d="M238.5 261.5C250.167 262.833 261.833 262.833 273.5 261.5C289.503 261.333 305.503 261.5 321.5 262C330.685 265.188 335.352 271.688 335.5 281.5C334.189 288.735 334.189 296.068 335.5 303.5C335.667 337.168 335.5 370.835 335 404.5C332.815 413.852 326.982 419.185 317.5 420.5C311.5 419.167 305.5 419.167 299.5 420.5C270.5 420.5 241.5 420.5 212.5 420.5C206.5 419.167 200.5 419.167 194.5 420.5C184.794 419.398 178.96 414.064 177 404.5C176.5 369.835 176.333 335.168 176.5 300.5C177.81 293.401 177.81 286.401 176.5 279.5C177.247 270.496 181.914 264.663 190.5 262C206.497 261.5 222.497 261.333 238.5 261.5Z" fill="#EFC319"/>
<path opacity="0.929" fill-rule="evenodd" clip-rule="evenodd" d="M176.5 279.5C177.81 286.401 177.81 293.401 176.5 300.5C162.341 310.746 148.008 320.746 133.5 330.5C132.411 323.985 129.078 318.985 123.5 315.5C138.955 304.551 154.288 293.385 169.5 282C171.65 280.589 173.984 279.755 176.5 279.5Z" fill="#802F33"/>
<path opacity="0.931" fill-rule="evenodd" clip-rule="evenodd" d="M335.5 281.5C338.757 282.462 341.757 283.962 344.5 286C359.046 296.719 373.712 307.219 388.5 317.5C385.97 320.042 383.47 322.709 381 325.5C379.589 327.65 378.755 329.984 378.5 332.5C375.91 331.872 373.577 330.705 371.5 329C359.617 320.235 347.617 311.735 335.5 303.5C334.189 296.068 334.189 288.735 335.5 281.5Z" fill="#803033"/>
<path fill-rule="evenodd" clip-rule="evenodd" d="M234.5 305.5C248.837 305.333 263.171 305.5 277.5 306C289.346 310.859 293.179 319.359 289 331.5C286.497 336.165 282.663 338.998 277.5 340C262.5 340.667 247.5 340.667 232.5 340C221.465 333.893 218.632 325.06 224 313.5C226.975 309.952 230.475 307.286 234.5 305.5Z" fill="#DF4E5F"/>
<path opacity="0.959" fill-rule="evenodd" clip-rule="evenodd" d="M123.5 315.5C129.078 318.985 132.411 323.985 133.5 330.5C134.396 338.381 131.396 344.048 124.5 347.5C118.505 350.166 112.505 350.166 106.5 347.5C95.4308 337.631 95.0975 327.464 105.5 317C111.322 314.365 117.322 313.865 123.5 315.5Z" fill="#EFC319"/>
<path opacity="0.957" fill-rule="evenodd" clip-rule="evenodd" d="M405.5 350.5C402.307 351.011 399.141 351.678 396 352.5C392.8 351.932 389.633 351.265 386.5 350.5C380.608 346.04 377.941 340.04 378.5 332.5C378.755 329.984 379.589 327.65 381 325.5C383.47 322.709 385.97 320.042 388.5 317.5C403.246 314.425 411.913 320.259 414.5 335C413.751 341.558 410.751 346.725 405.5 350.5Z" fill="#EFC219"/>
<path opacity="0.933" fill-rule="evenodd" clip-rule="evenodd" d="M106.5 347.5C112.505 350.166 118.505 350.166 124.5 347.5C125.152 363.437 125.819 379.437 126.5 395.5C134.333 399.916 142 404.582 149.5 409.5C150 410.5 150.5 411.5 151 412.5C151.667 418.5 151.667 424.5 151 430.5C148.897 436.469 144.73 438.636 138.5 437C136.43 436.052 134.93 434.552 134 432.5C133.007 428.558 132.34 424.558 132 420.5C126.813 417.24 121.479 414.24 116 411.5C110.436 414.366 104.936 417.366 99.5 420.5C98.1667 427.167 98.1667 433.833 99.5 440.5C106.705 444.867 114.038 449.033 121.5 453C127.52 461.275 125.686 467.109 116 470.5C104.961 465.147 94.1278 459.313 83.5 453C82.5399 451.581 81.7065 450.081 81 448.5C80.3333 436.5 80.3333 424.5 81 412.5C81.7065 410.919 82.5399 409.419 83.5 408C90.9618 404.033 98.2951 399.867 105.5 395.5C106.499 379.514 106.833 363.514 106.5 347.5Z" fill="#802F33"/>
<path opacity="0.931" fill-rule="evenodd" clip-rule="evenodd" d="M386.5 350.5C389.633 351.265 392.8 351.932 396 352.5C399.141 351.678 402.307 351.011 405.5 350.5C405.333 366.17 405.5 381.837 406 397.5C413.249 401.54 420.415 405.707 427.5 410C429.049 411.214 430.215 412.714 431 414.5C431.667 426.833 431.667 439.167 431 451.5C429.5 454.333 427.333 456.5 424.5 458C417.337 461.747 410.337 465.747 403.5 470C394.947 474.918 389.281 472.752 386.5 463.5C386.774 459.843 388.44 457.01 391.5 455C398.912 451.212 406.079 447.045 413 442.5C413.667 436.167 413.667 429.833 413 423.5C407.333 420.167 401.667 416.833 396 413.5C390.915 416.626 385.749 419.626 380.5 422.5C379.703 426.842 378.87 431.176 378 435.5C371.439 442.385 365.772 441.718 361 433.5C360.076 426.392 360.409 419.392 362 412.5C369.832 407.25 377.832 402.25 386 397.5C386.5 381.837 386.667 366.17 386.5 350.5Z" fill="#802F33"/>
<path fill-rule="evenodd" clip-rule="evenodd" d="M217.5 376.5C226.711 375.542 230.545 379.542 229 388.5C223.667 395.167 218.333 395.167 213 388.5C211.309 383.131 212.809 379.131 217.5 376.5Z" fill="#313237"/>
<path fill-rule="evenodd" clip-rule="evenodd" d="M252.5 376.5C261.711 375.542 265.545 379.542 264 388.5C258.667 395.167 253.333 395.167 248 388.5C246.309 383.131 247.809 379.131 252.5 376.5Z" fill="#313237"/>
<path fill-rule="evenodd" clip-rule="evenodd" d="M287.5 376.5C296.711 375.542 300.545 379.542 299 388.5C293.667 395.167 288.333 395.167 283 388.5C281.309 383.131 282.809 379.131 287.5 376.5Z" fill="#313237"/>
<path opacity="0.974" fill-rule="evenodd" clip-rule="evenodd" d="M212.5 420.5C212.5 437.833 212.5 455.167 212.5 472.5C206.5 472.5 200.5 472.5 194.5 472.5C194.5 455.167 194.5 437.833 194.5 420.5C200.5 419.167 206.5 419.167 212.5 420.5Z" fill="#802F34"/>
<path opacity="0.972" fill-rule="evenodd" clip-rule="evenodd" d="M317.5 420.5C317.5 437.833 317.5 455.167 317.5 472.5C311.5 472.5 305.5 472.5 299.5 472.5C299.5 455.167 299.5 437.833 299.5 420.5C305.5 419.167 311.5 419.167 317.5 420.5Z" fill="#802F34"/>
<path opacity="0.983" fill-rule="evenodd" clip-rule="evenodd" d="M194.5 472.5C200.5 472.5 206.5 472.5 212.5 472.5C231.278 476.766 239.778 488.433 238 507.5C236.624 508.705 235.458 510.038 234.5 511.5C213.833 511.5 193.167 511.5 172.5 511.5C169.789 509.287 168.123 506.454 167.5 503C169.195 486.466 178.195 476.3 194.5 472.5Z" fill="#DF4C5F"/>
<path opacity="0.983" fill-rule="evenodd" clip-rule="evenodd" d="M299.5 472.5C305.5 472.5 311.5 472.5 317.5 472.5C336.31 476.792 344.81 488.459 343 507.5C341.624 508.705 340.458 510.038 339.5 511.5C318.833 511.5 298.167 511.5 277.5 511.5C276.542 510.038 275.376 508.705 274 507.5C272.222 488.433 280.722 476.766 299.5 472.5Z" fill="#DF4C5F"/>
<ellipse cx="160" cy="159" rx="22" ry="20" fill="#FFA0AB"/>
<ellipse cx="357" cy="157" rx="22" ry="20" fill="#FFA0AB"/>
<path fill-rule="evenodd" clip-rule="evenodd" d="M170.502 123.278C188.672 121.608 196.172 129.608 193.002 147.278C188.277 155.642 181.11 158.808 171.502 156.778C161.571 151.753 158.071 143.92 161.002 133.278C163.361 129.088 166.528 125.755 170.502 123.278Z" fill="#2E3037"/>
<path d="M233 165C242 186 273 186 280.5 165" stroke="#2E3037" stroke-width="15" stroke-linecap="round"/>
<path fill-rule="evenodd" clip-rule="evenodd" d="M328.502 122.278C344.461 120.473 352.294 127.473 352.002 143.278C348.084 153.822 340.584 157.988 329.502 155.778C318.834 150.792 315.334 142.625 319.002 131.278C321.408 127.37 324.574 124.37 328.502 122.278Z" fill="#2E3037"/>
</g>
<defs>
<clipPath id="clip0_1_10">
<rect width="512" height="512" fill="white"/>
</clipPath>
</defs>
</svg>
