<svg width="28" height="60" viewBox="0 0 28 60" fill="none" xmlns="http://www.w3.org/2000/svg">
<path opacity="0.964" d="M13.1056 0.831164C13.0729 0.837071 13.0417 0.849429 13.0139 0.867518C12.5873 1.14455 12.1781 1.45222 11.7861 1.79038C11.7814 1.79441 11.7769 1.7986 11.7725 1.80296C8.47291 5.10488 5.11293 8.36924 1.69262 11.596C1.34397 11.923 1.06016 12.288 0.8432 12.6912C0.825907 12.7233 0.815861 12.7589 0.813765 12.7953C0.757533 13.7733 0.993751 14.5182 1.64064 14.8789C2.25937 15.2239 3.15818 15.1547 4.26389 14.7875C4.29964 14.7756 4.33225 14.7558 4.35928 14.7295L8.24143 10.9584L11.7012 7.59748L11.7794 32.601L11.8595 58.1932C11.8596 58.2417 11.8739 58.2891 11.9004 58.3296C12.1005 58.6346 12.3659 58.8943 12.6919 59.1101C12.7093 59.1216 12.7281 59.1309 12.7479 59.1377C13.4073 59.3667 14.0181 59.4268 14.5706 59.2945C15.1263 59.1614 15.5989 58.8394 15.9876 58.3475C16.0224 58.3036 16.0413 58.2492 16.0415 58.1932L16.1216 32.601L16.1998 7.59748L19.6596 10.9584L23.5417 14.7295C23.565 14.7521 23.5924 14.77 23.6225 14.7821L23.9427 14.911L24.2628 15.0399C24.288 15.0501 24.3148 15.0561 24.3419 15.0576C25.4459 15.1212 26.2887 14.9626 26.7578 14.4806C27.2493 13.9755 27.2427 13.2201 26.9117 12.3353C26.8988 12.3007 26.8784 12.2695 26.8519 12.2438L21.489 7.02216L16.1358 1.81006C15.3974 0.918882 14.3696 0.602704 13.1056 0.831164Z" fill="black" stroke="black" stroke-width="0.5" stroke-linejoin="round"/>
</svg>
