<svg width="512" height="512" viewBox="0 0 512 512" fill="none" xmlns="http://www.w3.org/2000/svg">
<g clip-path="url(#clip0_1_405)">
<path opacity="0.99" fill-rule="evenodd" clip-rule="evenodd" d="M274.931 -0.5C258.644 -0.5 242.356 -0.5 226.069 -0.5C224.128 1.58294 222.667 4.91627 221.683 9.5C221.096 17.7492 220.887 26.0826 221.057 34.5C240.686 34.5 260.314 34.5 279.943 34.5C280.113 26.0826 279.904 17.7492 279.317 9.5C278.333 4.91627 276.872 1.58294 274.931 -0.5Z" fill="#FE5363"/>
<path opacity="0.995" fill-rule="evenodd" clip-rule="evenodd" d="M289.609 34.5C264.87 34.5 240.13 34.5 215.391 34.5C202.231 34.3334 189.072 34.5 175.914 35C171.733 37.6119 169.541 43.1119 169.334 51.5C169.071 63.1619 168.983 74.8286 169.071 86.5C169.773 116.167 169.773 145.833 169.071 175.5C168.859 188.885 169.122 202.218 169.861 215.5C170.615 220.598 172.282 224.098 174.861 226C197.638 227.484 220.447 227.984 243.289 227.5C249.43 227.5 255.57 227.5 261.711 227.5C284.552 227.984 307.361 227.484 330.139 226C332.718 224.098 334.385 220.598 335.139 215.5C335.878 202.218 336.141 188.885 335.929 175.5C335.227 145.833 335.227 116.167 335.929 86.5C336.017 74.8286 335.929 63.1619 335.666 51.5C335.46 43.1119 333.267 37.6119 329.086 35C315.928 34.5 302.769 34.3334 289.609 34.5Z" fill="#EFC319"/>
<path fill-rule="evenodd" clip-rule="evenodd" d="M273.5 227.5C261.833 227.5 250.167 227.5 238.5 227.5C238.5 238.833 238.5 250.167 238.5 261.5C250.167 262.833 261.833 262.833 273.5 261.5C273.5 250.167 273.5 238.833 273.5 227.5Z" fill="#813033"/>
<path d="M256.413 284.534L198.102 308.872L150.758 346.257M150.758 346.257L151.723 361.611L136.894 369.267M150.758 346.257L125.188 337.615L105.235 352.07L111.55 377.748" stroke="#883B31" stroke-width="20" stroke-linecap="round"/>
<ellipse rx="15.5" ry="14" transform="matrix(-0.586672 -0.809825 -0.809825 0.586672 194.458 311.512)" fill="#FFD225"/>
<path opacity="0.984" fill-rule="evenodd" clip-rule="evenodd" d="M273.5 261.5C261.833 262.833 250.167 262.833 238.5 261.5C222.497 261.333 206.497 261.5 190.5 262C181.315 265.188 176.648 271.688 176.5 281.5C177.811 288.735 177.811 296.068 176.5 303.5C176.333 337.168 176.5 370.835 177 404.5C179.185 413.852 185.018 419.185 194.5 420.5C200.5 419.167 206.5 419.167 212.5 420.5C241.5 420.5 270.5 420.5 299.5 420.5C305.5 419.167 311.5 419.167 317.5 420.5C327.206 419.398 333.04 414.064 335 404.5C335.5 369.835 335.667 335.168 335.5 300.5C334.19 293.401 334.19 286.401 335.5 279.5C334.753 270.496 330.086 264.663 321.5 262C305.503 261.5 289.503 261.333 273.5 261.5Z" fill="#EFC319"/>
<path opacity="0.972" fill-rule="evenodd" clip-rule="evenodd" d="M216.315 417.34C202.343 427.597 188.37 437.855 174.398 448.112C177.949 452.949 181.5 457.785 185.051 462.621C199.023 452.364 212.996 442.106 226.968 431.848C224.492 426.223 220.941 421.387 216.315 417.34Z" fill="#59292C"/>
<path opacity="0.983" fill-rule="evenodd" clip-rule="evenodd" d="M185.049 462.619C181.498 457.783 177.947 452.946 174.396 448.11C159.805 435.488 145.371 435.541 131.094 448.269C130.937 450.091 130.553 451.82 129.941 453.457C142.172 470.116 154.402 486.775 166.633 503.434C168.378 503.341 170.142 503.492 171.928 503.888C188.349 494.037 192.723 480.28 185.049 462.619Z" fill="#C54757"/>
<path opacity="0.972" fill-rule="evenodd" clip-rule="evenodd" d="M247.27 421C247.27 438.333 247.27 455.667 247.27 473C253.27 473 259.27 473 265.27 473C265.27 455.667 265.27 438.333 265.27 421C259.27 419.667 253.27 419.667 247.27 421Z" fill="#763135"/>
<path opacity="0.983" fill-rule="evenodd" clip-rule="evenodd" d="M265.269 473C259.269 473 253.269 473 247.269 473C228.459 477.292 219.959 488.959 221.769 508C223.145 509.205 224.311 510.538 225.269 512C245.936 512 266.602 512 287.269 512C288.227 510.538 289.393 509.205 290.769 508C292.547 488.933 284.047 477.266 265.269 473Z" fill="#DF4C5F"/>
<rect width="64" height="63" rx="15" transform="matrix(-1 0 0 1 289 100)" fill="#FE5565"/>
<path d="M251.379 120.132C256.276 117.58 262.316 119.481 264.868 124.379C267.42 129.276 265.519 135.316 260.621 137.868L251.379 120.132ZM251.772 157.615C254.747 162.268 253.386 168.452 248.732 171.426C244.078 174.4 237.895 173.039 234.921 168.385L251.772 157.615ZM260.621 137.868C255.418 140.58 252.882 143.273 251.612 145.298C250.364 147.287 249.985 149.187 250 150.952C250.017 152.818 250.486 154.586 251.02 155.962C251.278 156.628 251.526 157.137 251.686 157.442C251.765 157.592 251.82 157.687 251.838 157.719C251.848 157.735 251.848 157.735 251.837 157.718C251.832 157.709 251.824 157.696 251.813 157.679C251.808 157.671 251.802 157.661 251.795 157.65C251.792 157.645 251.788 157.639 251.784 157.633C251.783 157.63 251.78 157.626 251.779 157.624C251.776 157.619 251.772 157.615 243.347 163C234.921 168.385 234.917 168.381 234.914 168.375C234.913 168.374 234.91 168.369 234.907 168.365C234.903 168.358 234.898 168.35 234.893 168.342C234.883 168.326 234.872 168.309 234.861 168.291C234.838 168.254 234.811 168.211 234.782 168.163C234.723 168.068 234.653 167.951 234.572 167.813C234.411 167.537 234.208 167.177 233.978 166.739C233.521 165.867 232.944 164.665 232.373 163.193C231.249 160.295 230.045 156.083 230.001 151.13C229.956 146.075 231.128 140.315 234.671 134.668C238.191 129.058 243.685 124.141 251.379 120.132L260.621 137.868Z" fill="#BFC4C8"/>
<ellipse rx="17.5" ry="15.5" transform="matrix(-1 0 0 1 244.5 167.5)" fill="#DF5366"/>
<ellipse rx="9.5" ry="17.5" transform="matrix(-1 0 0 1 185.5 145.5)" fill="#FFA0AB"/>
<path fill-rule="evenodd" clip-rule="evenodd" d="M183.704 105.214C174.54 103.559 170.758 111.487 172.356 128.997C174.739 137.285 178.354 140.422 183.199 138.411C188.208 133.431 189.973 125.669 188.495 115.124C187.305 110.972 185.708 107.669 183.704 105.214Z" fill="#2E3037"/>
<path d="M177.5 186.5C175.667 190.53 169.5 195.5 169.5 195.5V189V181.5C169.5 181.5 171 180 171 177C171 177 170.21 167.838 176.5 168.5C186 169.5 177.5 186.5 177.5 186.5Z" fill="#2E3037" stroke="#2E3037"/>
<path d="M256 285L269 351L244 406.774M244 406.774L257 415L254.5 431.5M244 406.774L222 422.41V447.05L246.5 457" stroke="#883B31" stroke-width="20" stroke-linecap="round"/>
<ellipse rx="15.5" ry="14" transform="matrix(-1 0 0 1 267.5 355)" fill="#FFD225"/>
</g>
<defs>
<clipPath id="clip0_1_405">
<rect width="512" height="512" fill="white" transform="matrix(-1 0 0 1 512 0)"/>
</clipPath>
</defs>
</svg>
