<svg width="512" height="512" viewBox="0 0 512 512" fill="none" xmlns="http://www.w3.org/2000/svg">
<g clip-path="url(#clip0_1_372)">
<path opacity="0.99" fill-rule="evenodd" clip-rule="evenodd" d="M237.069 -0.5C253.356 -0.5 269.644 -0.5 285.931 -0.5C287.872 1.58294 289.333 4.91627 290.317 9.5C290.904 17.7492 291.113 26.0826 290.943 34.5C271.314 34.5 251.686 34.5 232.057 34.5C231.887 26.0826 232.096 17.7492 232.683 9.5C233.667 4.91627 235.128 1.58294 237.069 -0.5Z" fill="#FE5363"/>
<path opacity="0.995" fill-rule="evenodd" clip-rule="evenodd" d="M222.391 34.5C247.13 34.5 271.87 34.5 296.609 34.5C309.769 34.3334 322.928 34.5 336.086 35C340.267 37.6119 342.459 43.1119 342.666 51.5C342.929 63.1619 343.017 74.8286 342.929 86.5C342.227 116.167 342.227 145.833 342.929 175.5C343.141 188.885 342.878 202.218 342.139 215.5C341.385 220.598 339.718 224.098 337.139 226C314.362 227.484 291.553 227.984 268.711 227.5C262.57 227.5 256.43 227.5 250.289 227.5C227.448 227.984 204.639 227.484 181.861 226C179.282 224.098 177.615 220.598 176.861 215.5C176.122 202.218 175.859 188.885 176.071 175.5C176.773 145.833 176.773 116.167 176.071 86.5C175.983 74.8286 176.071 63.1619 176.334 51.5C176.54 43.1119 178.733 37.6119 182.914 35C196.072 34.5 209.231 34.3334 222.391 34.5Z" fill="#EFC319"/>
<path fill-rule="evenodd" clip-rule="evenodd" d="M238.5 227.5C250.167 227.5 261.833 227.5 273.5 227.5C273.5 238.833 273.5 250.167 273.5 261.5C261.833 262.833 250.167 262.833 238.5 261.5C238.5 250.167 238.5 238.833 238.5 227.5Z" fill="#813033"/>
<path d="M255.587 284.534L313.898 308.872L361.242 346.257M361.242 346.257L360.277 361.611L375.106 369.267M361.242 346.257L386.812 337.615L406.765 352.07L400.45 377.748" stroke="#883B31" stroke-width="20" stroke-linecap="round"/>
<ellipse cx="317.542" cy="311.512" rx="15.5" ry="14" transform="rotate(-54.0788 317.542 311.512)" fill="#FFD225"/>
<path opacity="0.984" fill-rule="evenodd" clip-rule="evenodd" d="M238.5 261.5C250.167 262.833 261.833 262.833 273.5 261.5C289.503 261.333 305.503 261.5 321.5 262C330.685 265.188 335.352 271.688 335.5 281.5C334.189 288.735 334.189 296.068 335.5 303.5C335.667 337.168 335.5 370.835 335 404.5C332.815 413.852 326.982 419.185 317.5 420.5C311.5 419.167 305.5 419.167 299.5 420.5C270.5 420.5 241.5 420.5 212.5 420.5C206.5 419.167 200.5 419.167 194.5 420.5C184.794 419.398 178.96 414.064 177 404.5C176.5 369.835 176.333 335.168 176.5 300.5C177.81 293.401 177.81 286.401 176.5 279.5C177.247 270.496 181.914 264.663 190.5 262C206.497 261.5 222.497 261.333 238.5 261.5Z" fill="#EFC319"/>
<path opacity="0.972" fill-rule="evenodd" clip-rule="evenodd" d="M295.684 417.34C309.656 427.597 323.629 437.854 337.602 448.111C334.051 452.948 330.501 457.784 326.95 462.621C312.978 452.364 299.004 442.107 285.032 431.85C287.508 426.224 291.058 421.388 295.684 417.34Z" fill="#59292C"/>
<path opacity="0.983" fill-rule="evenodd" clip-rule="evenodd" d="M326.95 462.621C330.501 457.784 334.051 452.948 337.602 448.111C352.193 435.488 366.628 435.54 380.906 448.266C381.063 450.089 381.447 451.817 382.059 453.455C369.829 470.115 357.6 486.774 345.37 503.434C343.625 503.341 341.86 503.492 340.075 503.888C323.652 494.039 319.277 480.283 326.95 462.621Z" fill="#C54757"/>
<path opacity="0.972" fill-rule="evenodd" clip-rule="evenodd" d="M264.73 421C264.73 438.333 264.73 455.667 264.73 473C258.73 473 252.73 473 246.73 473C246.73 455.667 246.73 438.333 246.73 421C252.73 419.667 258.73 419.667 264.73 421Z" fill="#763135"/>
<path opacity="0.983" fill-rule="evenodd" clip-rule="evenodd" d="M246.731 473C252.731 473 258.731 473 264.731 473C283.541 477.292 292.041 488.959 290.231 508C288.855 509.205 287.689 510.538 286.731 512C266.064 512 245.398 512 224.731 512C223.773 510.538 222.607 509.205 221.231 508C219.453 488.933 227.953 477.266 246.731 473Z" fill="#DF4C5F"/>
<rect x="223" y="100" width="64" height="63" rx="15" fill="#FE5565"/>
<path d="M260.621 120.132C255.724 117.58 249.684 119.481 247.132 124.379C244.58 129.276 246.481 135.316 251.379 137.868L260.621 120.132ZM260.228 157.615C257.253 162.268 258.614 168.452 263.268 171.426C267.922 174.4 274.105 173.039 277.079 168.385L260.228 157.615ZM251.379 137.868C256.582 140.58 259.118 143.273 260.388 145.298C261.636 147.287 262.015 149.187 262 150.952C261.983 152.818 261.514 154.586 260.98 155.962C260.722 156.628 260.474 157.137 260.314 157.442C260.235 157.592 260.18 157.687 260.162 157.719C260.152 157.735 260.152 157.735 260.163 157.718C260.168 157.709 260.176 157.696 260.187 157.679C260.192 157.671 260.198 157.661 260.205 157.65C260.208 157.645 260.212 157.639 260.216 157.633C260.217 157.63 260.22 157.626 260.221 157.624C260.224 157.619 260.228 157.615 268.653 163C277.079 168.385 277.083 168.381 277.086 168.375C277.087 168.374 277.09 168.369 277.093 168.365C277.097 168.358 277.102 168.35 277.107 168.342C277.117 168.326 277.128 168.309 277.139 168.291C277.162 168.254 277.189 168.211 277.218 168.163C277.277 168.068 277.347 167.951 277.428 167.813C277.589 167.537 277.792 167.177 278.022 166.739C278.479 165.867 279.056 164.665 279.627 163.193C280.751 160.295 281.955 156.083 281.999 151.13C282.044 146.075 280.872 140.315 277.329 134.668C273.809 129.058 268.315 124.141 260.621 120.132L251.379 137.868Z" fill="#BFC4C8"/>
<ellipse cx="267.5" cy="167.5" rx="17.5" ry="15.5" fill="#DF5366"/>
<ellipse cx="326.5" cy="145.5" rx="9.5" ry="17.5" fill="#FFA0AB"/>
<path fill-rule="evenodd" clip-rule="evenodd" d="M328.296 105.214C337.46 103.559 341.242 111.487 339.644 128.997C337.261 137.285 333.646 140.422 328.801 138.411C323.792 133.431 322.027 125.669 323.505 115.124C324.695 110.972 326.292 107.669 328.296 105.214Z" fill="#2E3037"/>
<path d="M334.5 186.5C336.333 190.53 342.5 195.5 342.5 195.5V189V181.5C342.5 181.5 341 180 341 177C341 177 341.79 167.838 335.5 168.5C326 169.5 334.5 186.5 334.5 186.5Z" fill="#2E3037" stroke="#2E3037"/>
<path d="M256 285L243 351L268 406.774M268 406.774L255 415L257.5 431.5M268 406.774L290 422.41V447.05L265.5 457" stroke="#883B31" stroke-width="20" stroke-linecap="round"/>
<ellipse cx="244.5" cy="355" rx="15.5" ry="14" fill="#FFD225"/>
</g>
<defs>
<clipPath id="clip0_1_372">
<rect width="512" height="512" fill="white"/>
</clipPath>
</defs>
</svg>
