<svg width="512" height="512" viewBox="0 0 512 512" fill="none" xmlns="http://www.w3.org/2000/svg">
<g clip-path="url(#clip0_1_287)">
<path opacity="0.99" fill-rule="evenodd" clip-rule="evenodd" d="M197.5 -0.5C236.5 -0.5 275.5 -0.5 314.5 -0.5C319.146 1.58294 322.646 4.91627 325 9.5C326.406 17.7492 326.906 26.0826 326.5 34.5C279.5 34.5 232.5 34.5 185.5 34.5C185.094 26.0826 185.594 17.7492 187 9.5C189.354 4.91627 192.854 1.58294 197.5 -0.5Z" fill="#FE5363"/>
<path opacity="0.995" fill-rule="evenodd" clip-rule="evenodd" d="M185.5 34.5C232.5 34.5 279.5 34.5 326.5 34.5C351.502 34.3334 376.502 34.5 401.5 35C409.442 37.6119 413.608 43.1119 414 51.5C414.5 63.1619 414.667 74.8286 414.5 86.5C413.167 116.167 413.167 145.833 414.5 175.5C414.903 188.885 414.403 202.218 413 215.5C411.567 220.598 408.4 224.098 403.5 226C360.227 227.484 316.894 227.984 273.5 227.5C261.833 227.5 250.167 227.5 238.5 227.5C195.106 227.984 151.773 227.484 108.5 226C103.6 224.098 100.433 220.598 98.9998 215.5C97.5964 202.218 97.0964 188.885 97.4998 175.5C98.8331 145.833 98.8331 116.167 97.4998 86.5C97.3333 74.8286 97.4999 63.1619 97.9998 51.5C98.3914 43.1119 102.558 37.6119 110.5 35C135.498 34.5 160.498 34.3334 185.5 34.5Z" fill="#EFC319"/>
<path opacity="0.97" fill-rule="evenodd" clip-rule="evenodd" d="M97.4998 86.5C98.8331 116.167 98.8331 145.833 97.4998 175.5C91.8234 175.666 86.1567 175.499 80.4998 175C72.5347 174.701 67.0347 170.868 63.9998 163.5C62.8684 157.888 62.3684 152.221 62.4998 146.5C63.8331 140.5 63.8331 134.5 62.4998 128.5C62.3334 120.16 62.5001 111.827 62.9998 103.5C64.0932 95.1153 68.5932 89.6153 76.4998 87C83.4919 86.5004 90.4919 86.3337 97.4998 86.5Z" fill="#FE5363"/>
<path opacity="0.969" fill-rule="evenodd" clip-rule="evenodd" d="M414.5 86.5C421.508 86.3337 428.508 86.5004 435.5 87C443.407 89.6153 447.907 95.1153 449 103.5C449.5 111.827 449.666 120.16 449.5 128.5C448.167 134.5 448.167 140.5 449.5 146.5C449.631 152.221 449.131 157.888 448 163.5C444.965 170.868 439.465 174.701 431.5 175C425.843 175.499 420.176 175.666 414.5 175.5C413.167 145.833 413.167 116.167 414.5 86.5Z" fill="#FE5363"/>
<path opacity="0.968" fill-rule="evenodd" clip-rule="evenodd" d="M62.5 128.5C63.8333 134.5 63.8333 140.5 62.5 146.5C53.1874 147.384 44.5207 150.051 36.5 154.5C34.6505 147.812 30.6505 142.812 24.5 139.5C36.2445 132.73 48.9112 129.063 62.5 128.5Z" fill="#BDC2C6"/>
<path opacity="0.976" fill-rule="evenodd" clip-rule="evenodd" d="M449.5 128.5C463.122 128.93 475.789 132.597 487.5 139.5C481.35 142.812 477.35 147.812 475.5 154.5C467.479 150.051 458.813 147.384 449.5 146.5C448.167 140.5 448.167 134.5 449.5 128.5Z" fill="#BDC2C6"/>
<path opacity="0.964" fill-rule="evenodd" clip-rule="evenodd" d="M24.4998 139.5C30.6503 142.812 34.6503 147.812 36.4998 154.5C34.3469 171.242 25.3469 176.742 9.49981 171C0.935766 163.784 -0.564234 155.284 4.99981 145.5C10.3581 140.102 16.8581 138.102 24.4998 139.5Z" fill="#DE4D60"/>
<path opacity="0.966" fill-rule="evenodd" clip-rule="evenodd" d="M487.5 139.5C506.492 138.653 513.325 147.32 508 165.5C498.632 175.728 488.965 176.062 479 166.5C476.901 162.769 475.734 158.769 475.5 154.5C477.35 147.812 481.35 142.812 487.5 139.5Z" fill="#DE4D60"/>
<path fill-rule="evenodd" clip-rule="evenodd" d="M238.5 227.5C250.167 227.5 261.833 227.5 273.5 227.5C273.5 238.833 273.5 250.167 273.5 261.5C261.833 262.833 250.167 262.833 238.5 261.5C238.5 250.167 238.5 238.833 238.5 227.5Z" fill="#813033"/>
<path opacity="0.984" fill-rule="evenodd" clip-rule="evenodd" d="M238.5 261.5C250.167 262.833 261.833 262.833 273.5 261.5C289.503 261.333 305.503 261.5 321.5 262C330.685 265.188 335.352 271.688 335.5 281.5C334.189 288.735 334.189 296.068 335.5 303.5C335.667 337.168 335.5 370.835 335 404.5C332.815 413.852 326.982 419.185 317.5 420.5C311.5 419.167 305.5 419.167 299.5 420.5C270.5 420.5 241.5 420.5 212.5 420.5C206.5 419.167 200.5 419.167 194.5 420.5C184.794 419.398 178.96 414.064 177 404.5C176.5 369.835 176.333 335.168 176.5 300.5C177.81 293.401 177.81 286.401 176.5 279.5C177.247 270.496 181.914 264.663 190.5 262C206.497 261.5 222.497 261.333 238.5 261.5Z" fill="#EFC319"/>
<path opacity="0.929" fill-rule="evenodd" clip-rule="evenodd" d="M176.5 279.5C177.81 286.401 177.81 293.401 176.5 300.5C162.341 310.746 148.008 320.746 133.5 330.5C132.411 323.985 129.078 318.985 123.5 315.5C138.955 304.551 154.288 293.385 169.5 282C171.65 280.589 173.984 279.755 176.5 279.5Z" fill="#802F33"/>
<path opacity="0.931" fill-rule="evenodd" clip-rule="evenodd" d="M335.927 281.347C338.634 283.397 340.912 285.86 342.758 288.735C352.583 303.899 362.597 318.901 372.803 333.741C369.538 335.226 366.258 336.839 362.961 338.578C360.882 340.092 359.278 341.981 358.151 344.245C355.949 342.743 354.179 340.827 352.837 338.499C344.814 326.103 336.588 313.913 328.159 301.93C329.557 294.514 332.146 287.653 335.927 281.347Z" fill="#803033"/>
<path opacity="0.959" fill-rule="evenodd" clip-rule="evenodd" d="M123.5 315.5C129.078 318.985 132.411 323.985 133.5 330.5C134.396 338.381 131.396 344.048 124.5 347.5C118.505 350.166 112.505 350.166 106.5 347.5C95.4308 337.631 95.0975 327.464 105.5 317C111.322 314.365 117.322 313.865 123.5 315.5Z" fill="#EFC319"/>
<path opacity="0.957" fill-rule="evenodd" clip-rule="evenodd" d="M377.073 356.796C373.88 357.307 370.714 357.974 367.573 358.796C364.373 358.228 361.206 357.561 358.073 356.796C352.181 352.336 349.514 346.336 350.073 338.796C350.328 336.28 351.162 333.946 352.573 331.796C355.043 329.005 357.543 326.338 360.073 323.796C374.819 320.721 383.486 326.555 386.073 341.296C385.324 347.854 382.324 353.021 377.073 356.796Z" fill="#EFC219"/>
<path opacity="0.933" fill-rule="evenodd" clip-rule="evenodd" d="M111.497 350.076C118.049 350.576 123.702 348.566 128.457 344.046C134.411 358.843 140.4 373.695 146.423 388.602C155.283 390.138 164.07 391.966 172.784 394.087C173.59 394.862 174.396 395.636 175.202 396.411C177.841 401.841 179.851 407.494 181.233 413.371C181.251 419.7 178.051 423.137 171.633 423.683C169.365 423.483 167.449 422.573 165.885 420.951C163.629 417.569 161.66 414.024 159.981 410.314C154.001 408.98 147.97 407.941 141.89 407.195C137.608 411.759 133.431 416.428 129.359 421.203C130.336 427.931 132.569 434.212 136.059 440.047C144.311 441.747 152.616 443.216 160.976 444.454C169.42 450.234 169.646 456.345 161.656 462.785C149.462 461.44 137.3 459.572 125.172 457.185C123.792 456.169 122.504 455.035 121.308 453.782C116.66 442.699 112.64 431.393 109.248 419.863C109.384 418.136 109.666 416.444 110.096 414.785C115.797 408.548 121.311 402.166 126.636 395.637C122.222 380.24 117.176 365.053 111.497 350.076Z" fill="#802F33"/>
<path opacity="0.931" fill-rule="evenodd" clip-rule="evenodd" d="M362.503 359.635C365.676 359.06 368.841 358.381 371.995 357.599C374.531 355.571 377.152 353.674 379.861 351.909C386.081 366.293 392.604 380.538 399.43 394.644C407.695 395.387 415.937 396.28 424.155 397.321C426.064 397.8 427.739 398.697 429.183 400.009C434.807 411.005 439.823 422.273 444.228 433.812C444.01 437.01 442.911 439.871 440.933 442.393C435.913 448.729 431.144 455.23 426.627 461.896C420.813 469.867 414.756 470.192 408.453 462.87C407.216 459.418 407.586 456.152 409.565 453.072C414.796 446.597 419.649 439.876 424.124 432.909C422.158 426.852 419.582 421.065 416.398 415.551C409.865 414.81 403.333 414.068 396.8 413.328C393.426 418.252 389.926 423.093 386.299 427.853C387.337 432.144 388.338 436.442 389.302 440.746C386.107 449.704 380.659 451.399 372.957 445.832C369.223 439.714 366.681 433.183 365.332 426.24C370.352 418.259 375.628 410.438 381.158 402.777C375.246 388.264 369.028 373.883 362.503 359.635Z" fill="#802F33"/>
<path opacity="0.974" fill-rule="evenodd" clip-rule="evenodd" d="M212.5 420.5C212.5 437.833 212.5 455.167 212.5 472.5C206.5 472.5 200.5 472.5 194.5 472.5C194.5 455.167 194.5 437.833 194.5 420.5C200.5 419.167 206.5 419.167 212.5 420.5Z" fill="#802F34"/>
<path opacity="0.972" fill-rule="evenodd" clip-rule="evenodd" d="M317.5 420.264C317.5 433.509 317.5 446.755 317.5 460C311.5 460 305.5 460 299.5 460C299.5 446.755 299.5 433.509 299.5 420.264C305.5 419.246 311.5 419.246 317.5 420.264Z" fill="#802F34"/>
<path opacity="0.983" fill-rule="evenodd" clip-rule="evenodd" d="M194.5 472.5C200.5 472.5 206.5 472.5 212.5 472.5C231.278 476.766 239.778 488.433 238 507.5C236.624 508.705 235.458 510.038 234.5 511.5C213.833 511.5 193.167 511.5 172.5 511.5C169.789 509.287 168.123 506.454 167.5 503C169.195 486.466 178.195 476.3 194.5 472.5Z" fill="#DF4C5F"/>
<path opacity="0.983" fill-rule="evenodd" clip-rule="evenodd" d="M299.731 441C305.731 441 311.731 441 317.731 441C336.541 445.292 345.041 456.959 343.231 476C341.855 477.205 340.689 478.538 339.731 480C319.064 480 298.398 480 277.731 480C276.773 478.538 275.607 477.205 274.231 476C272.453 456.933 280.953 445.266 299.731 441Z" fill="#DF4C5F"/>
</g>
<defs>
<clipPath id="clip0_1_287">
<rect width="512" height="512" fill="white"/>
</clipPath>
</defs>
</svg>
